<svg width="45" height="45" viewBox="0 0 45 45" fill="none" xmlns="http://www.w3.org/2000/svg">
<g clip-path="url(#clip0_79_261)">
<path d="M42.8484 6.42656H45V17.1422H42.8484V6.42656ZM40.7109 17.1422H42.8484V19.2797H40.7109V17.1422ZM40.7109 4.28906H42.8484V6.42656H40.7109V4.28906ZM38.5734 38.5734V32.1469H42.8484V29.9953H40.7109V27.8578H38.5734V25.7203H36.4219V27.8578H34.2844V29.9953H32.1328V32.1469H36.4219V38.5734H38.5734ZM38.5734 19.2797H40.7109V21.4312H38.5734V19.2797ZM38.5734 2.1375H40.7109V4.28906H38.5734V2.1375ZM36.4219 12.8531H38.5734V15.0047H36.4219V12.8531ZM34.2844 38.5734H36.4219V40.7109H34.2844V38.5734ZM27.8578 21.4312H38.5734V23.5688H27.8578V21.4312ZM29.9953 10.7156H36.4219V12.8531H29.9953V10.7156ZM29.9953 15.0047V17.1422H32.1328V19.2797H34.2844V17.1422H36.4219V15.0047H29.9953ZM36.4219 8.57812V6.42656H34.2844V4.28906H32.1328V6.42656H29.9953V8.57812H36.4219ZM25.7063 40.7109H34.2844V42.8625H25.7063V40.7109ZM27.8578 0H38.5734V2.1375H27.8578V0ZM27.8578 8.57812H29.9953V10.7156H27.8578V8.57812ZM25.7063 19.2797H27.8578V21.4312H25.7063V19.2797ZM25.7063 2.1375H27.8578V4.28906H25.7063V2.1375ZM23.5688 17.1422H25.7063V19.2797H23.5688V17.1422ZM23.5688 4.28906H25.7063V6.42656H23.5688V4.28906ZM21.4312 27.8578H23.5688V38.5734H21.4312V27.8578ZM21.4312 6.42656H23.5688V17.1422H21.4312V6.42656ZM19.2797 38.5734H21.4312V40.7109H19.2797V38.5734ZM19.2797 25.7203H21.4312V27.8578H19.2797V25.7203ZM17.1422 40.7109H19.2797V42.8625H17.1422V40.7109ZM17.1422 23.5688H19.2797V25.7203H17.1422V23.5688ZM6.42656 42.8625H17.1422V45H6.42656V42.8625ZM10.7156 2.1375H19.2797V4.28906H10.7156V2.1375ZM10.7156 38.5734H14.9906V40.7109H10.7156V38.5734ZM10.7156 25.7203H14.9906V27.8578H10.7156V25.7203ZM8.56406 38.5734H10.7156V36.4359H12.8531V34.2844H8.56406V32.1469H14.9906V29.9953H10.7156V27.8578H8.56406V29.9953H4.275V32.1469H6.42656V34.2844H4.275V36.4359H8.56406V38.5734ZM6.42656 21.4312H17.1422V23.5688H6.42656V21.4312ZM8.56406 4.28906H10.7156V6.42656H8.56406V4.28906ZM4.275 40.7109H6.42656V42.8625H4.275V40.7109ZM4.275 23.5688H6.42656V25.7203H4.275V23.5688ZM4.275 17.1422H6.42656V19.2797H8.56406V17.1422H10.7156V15.0047H12.8531V12.8531H8.56406V6.42656H6.42656V12.8531H2.1375V15.0047H4.275V17.1422ZM2.1375 38.5734H4.275V40.7109H2.1375V38.5734ZM2.1375 25.7203H4.275V27.8578H2.1375V25.7203ZM0 27.8578H2.1375V38.5734H0V27.8578Z" fill="#16A34A"/>
</g>
<defs>
<clipPath id="clip0_79_261">
<rect width="45" height="45" fill="white"/>
</clipPath>
</defs>
</svg>
